<?xml version="1.0" encoding="UTF-8"?>
<svg id="Capa_1" xmlns="http://www.w3.org/2000/svg" version="1.1" viewBox="0 0 290 190">
  <!-- Generator: Adobe Illustrator 30.2.1, SVG Export Plug-In . SVG Version: 2.1.1 Build 1)  -->
  <defs>
    <style>
      .st0 {
        fill: #37507c;
      }

      .st1 {
        fill: #d16c28;
      }

      .st2 {
        fill: #30899e;
      }

      .st3 {
        fill: #415e64;
      }

      .st4 {
        opacity: .55;
      }

      .st5, .st6 {
        isolation: isolate;
      }

      .st7 {
        fill: #163475;
      }

      .st8 {
        fill: #e2b1a8;
      }

      .st9 {
        fill: #1a6060;
      }

      .st10 {
        fill: #635e5a;
      }

      .st11 {
        fill: #777060;
      }

      .st6 {
        fill: #8c9bb5;
        font-family: Poppins-Medium, Poppins;
        font-size: 27.31px;
        font-weight: 500;
      }
    </style>
  </defs>
  <g>
    <g>
      <path class="st0" d="M31.02,66.01c-5.55,0-10.32-1.07-14.3-3.2s-7.03-5.15-9.14-9.04-3.17-8.44-3.17-13.66c0-3.89.6-7.42,1.81-10.6,1.21-3.18,2.96-5.91,5.27-8.18,2.3-2.28,5.1-4.02,8.4-5.23,3.3-1.21,7.01-1.81,11.13-1.81,2.18,0,4.45.25,6.79.75,2.35.5,4.42,1.25,6.23,2.24,1.33.71,2.25,1.61,2.77,2.7s.7,2.21.53,3.34c-.17,1.14-.58,2.16-1.25,3.06-.66.9-1.52,1.51-2.56,1.81-1.04.31-2.18.15-3.41-.46-1.42-.66-2.83-1.17-4.23-1.53s-2.86-.53-4.38-.53c-2.94,0-5.4.56-7.36,1.67-1.97,1.12-3.45,2.74-4.45,4.87-1,2.13-1.49,4.77-1.49,7.9s.5,5.78,1.49,7.93c1,2.16,2.48,3.8,4.45,4.91,1.97,1.12,4.42,1.67,7.36,1.67,1.23,0,2.56-.15,3.98-.46,1.42-.31,2.82-.79,4.2-1.46,1.42-.62,2.69-.78,3.81-.5,1.11.28,2.02.85,2.7,1.71.69.85,1.13,1.84,1.32,2.95.19,1.12.04,2.22-.46,3.31s-1.36,1.97-2.6,2.63c-1.66,1-3.71,1.78-6.15,2.35-2.44.57-4.87.85-7.29.85h0Z"/>
      <path class="st0" d="M69.01,66.01c-3.89,0-7.28-.74-10.17-2.21s-5.15-3.58-6.76-6.33-2.42-6-2.42-9.75c0-2.85.45-5.4,1.35-7.65.9-2.25,2.21-4.17,3.91-5.76,1.71-1.59,3.75-2.8,6.12-3.63,2.37-.83,5.03-1.25,7.97-1.25,3.89,0,7.28.74,10.17,2.21,2.89,1.47,5.13,3.57,6.72,6.3,1.59,2.73,2.38,5.99,2.38,9.78,0,2.8-.45,5.34-1.35,7.61-.9,2.28-2.19,4.21-3.88,5.8-1.68,1.59-3.72,2.8-6.12,3.63s-5.04,1.25-7.93,1.25h.01ZM69.01,56.69c1.28,0,2.42-.32,3.42-.96s1.77-1.61,2.31-2.92c.54-1.3.82-3,.82-5.09,0-3.18-.62-5.47-1.85-6.87-1.23-1.4-2.8-2.1-4.7-2.1-1.28,0-2.42.31-3.42.92-1,.62-1.78,1.58-2.35,2.88-.57,1.31-.85,3.02-.85,5.16,0,3.13.62,5.41,1.85,6.83,1.23,1.42,2.82,2.13,4.77,2.13v.02Z"/>
      <path class="st0" d="M100.39,65.87c-1.99,0-3.53-.55-4.62-1.64-1.09-1.09-1.64-2.68-1.64-4.77v-23.55c0-2.04.53-3.6,1.6-4.7,1.07-1.09,2.6-1.64,4.59-1.64s3.51.55,4.55,1.64,1.57,2.66,1.57,4.7v3.34l-.78-2.92c1.14-2.23,2.76-3.94,4.87-5.12s4.52-1.78,7.22-1.78,5.1.53,6.9,1.6,3.15,2.73,4.06,4.98c.9,2.25,1.35,5.09,1.35,8.5v14.94c0,2.09-.55,3.68-1.64,4.77-1.09,1.09-2.66,1.64-4.7,1.64s-3.61-.55-4.7-1.64c-1.09-1.09-1.64-2.68-1.64-4.77v-14.44c0-2.13-.37-3.65-1.1-4.55-.74-.9-1.81-1.35-3.24-1.35-1.9,0-3.42.6-4.55,1.81-1.14,1.21-1.71,2.83-1.71,4.87v13.66c0,4.27-2.13,6.4-6.4,6.4v.02Z"/>
      <path class="st0" d="M150.9,66.01c-2.99,0-5.63-.74-7.93-2.21-2.3-1.47-4.1-3.58-5.41-6.33s-1.96-6-1.96-9.75.65-7.12,1.96-9.82c1.3-2.7,3.11-4.79,5.41-6.26s4.94-2.21,7.93-2.21c2.61,0,4.96.62,7.04,1.85,2.09,1.23,3.49,2.82,4.2,4.77h-.78v-15.23c0-2.09.54-3.68,1.64-4.77s2.66-1.64,4.7-1.64,3.55.55,4.66,1.64,1.67,2.68,1.67,4.77v38.63c0,2.09-.53,3.68-1.6,4.77-1.07,1.09-2.62,1.64-4.66,1.64s-3.53-.55-4.62-1.64c-1.09-1.09-1.64-2.68-1.64-4.77v-4.06l.78,3.49c-.66,2.13-2.05,3.85-4.16,5.16-2.11,1.3-4.52,1.96-7.22,1.96h0ZM154.96,56.69c1.28,0,2.42-.32,3.42-.96s1.77-1.61,2.31-2.92c.54-1.3.82-3,.82-5.09,0-3.18-.62-5.47-1.85-6.87-1.23-1.4-2.8-2.1-4.7-2.1-1.28,0-2.42.31-3.42.92-1,.62-1.78,1.58-2.35,2.88-.57,1.31-.85,3.02-.85,5.16,0,3.13.62,5.41,1.85,6.83,1.23,1.42,2.82,2.13,4.77,2.13v.02Z"/>
      <path class="st0" d="M194.45,66.01c-3.04,0-5.53-.56-7.47-1.67-1.95-1.11-3.4-2.79-4.38-5.02-.97-2.23-1.46-5.05-1.46-8.47v-14.94c0-2.09.54-3.66,1.64-4.73,1.09-1.07,2.66-1.6,4.7-1.6s3.6.53,4.7,1.6c1.09,1.07,1.64,2.64,1.64,4.73v15.3c0,1.71.36,2.99,1.07,3.84s1.83,1.28,3.34,1.28c1.71,0,3.11-.62,4.2-1.85s1.64-2.87,1.64-4.91v-13.66c0-2.09.54-3.66,1.64-4.73,1.09-1.07,2.66-1.6,4.7-1.6s3.6.53,4.7,1.6c1.09,1.07,1.64,2.64,1.64,4.73v23.55c0,4.27-2.04,6.4-6.12,6.4-1.99,0-3.53-.55-4.62-1.64-1.09-1.09-1.64-2.68-1.64-4.77v-4.13l1.14,3.49c-1.04,2.32-2.5,4.1-4.38,5.34-1.87,1.23-4.09,1.85-6.65,1.85h-.03Z"/>
      <path class="st0" d="M241.98,66.01c-3.94,0-7.36-.74-10.28-2.21s-5.18-3.59-6.79-6.37c-1.61-2.77-2.42-6.04-2.42-9.78,0-2.85.45-5.39,1.35-7.65.9-2.25,2.22-4.16,3.95-5.73s3.79-2.76,6.19-3.59c2.39-.83,5.06-1.25,8-1.25,1.38,0,2.82.13,4.34.39,1.52.26,3.08.75,4.7,1.46,1.14.43,1.93,1.08,2.38,1.96.45.88.64,1.81.57,2.81-.07,1-.36,1.9-.85,2.7-.5.81-1.19,1.35-2.06,1.64-.88.28-1.86.17-2.95-.36-.76-.38-1.55-.65-2.38-.82s-1.62-.25-2.38-.25c-1.28,0-2.41.19-3.38.57s-1.79.94-2.45,1.67c-.66.74-1.17,1.65-1.53,2.74s-.53,2.32-.53,3.7c0,2.75.69,4.91,2.06,6.47,1.38,1.57,3.32,2.35,5.83,2.35.76,0,1.54-.08,2.35-.25.81-.17,1.61-.44,2.42-.82,1.09-.52,2.06-.63,2.92-.32.85.31,1.54.87,2.06,1.67.52.81.81,1.7.85,2.67.05.97-.17,1.9-.64,2.77-.47.88-1.28,1.53-2.42,1.96-1.57.71-3.1,1.2-4.59,1.46-1.49.26-2.93.39-4.3.39l-.02.02Z"/>
      <path class="st0" d="M277.19,66.01c-3.56,0-6.49-.55-8.79-1.64-2.3-1.09-4.02-2.74-5.16-4.95s-1.71-4.97-1.71-8.29v-11.6h-2.42c-1.52,0-2.69-.4-3.52-1.21-.83-.81-1.25-1.97-1.25-3.49s.42-2.67,1.25-3.45c.83-.78,2-1.17,3.52-1.17h2.42v-4.41c0-2.09.54-3.68,1.64-4.77,1.09-1.09,2.66-1.64,4.7-1.64s3.6.55,4.7,1.64c1.09,1.09,1.64,2.68,1.64,4.77v4.41h5.83c1.57,0,2.76.39,3.59,1.17.83.78,1.25,1.93,1.25,3.45s-.42,2.68-1.25,3.49-2.03,1.21-3.59,1.21h-5.83v11.17c0,1.76.41,3.05,1.24,3.88s2.15,1.25,3.95,1.25c.66,0,1.3-.07,1.92-.21.62-.14,1.19-.21,1.71-.21.76-.05,1.38.18,1.85.68s.71,1.63.71,3.38c0,1.42-.21,2.62-.64,3.59-.43.97-1.19,1.67-2.28,2.1-.66.24-1.57.44-2.7.6-1.14.17-2.06.25-2.77.25h-.01Z"/>
    </g>
    <g>
      <path class="st2" d="M18.03,141.62c-2.41,0-4.28-.67-5.59-2.02-1.32-1.34-1.97-3.22-1.97-5.63v-44.17c0-2.52.66-4.43,1.97-5.72,1.32-1.29,3.18-1.93,5.59-1.93s4.34.65,5.63,1.93c1.29,1.29,1.93,3.19,1.93,5.72v17.93h.16l19.99-22.04c1.04-1.1,2.15-1.96,3.33-2.59s2.51-.95,3.99-.95c2.3,0,3.96.59,4.98,1.77,1.01,1.18,1.48,2.55,1.4,4.11-.08,1.56-.73,3-1.93,4.32l-19.9,21.14v-6.17l20.89,23.6c1.43,1.59,2.14,3.22,2.14,4.89s-.56,3.06-1.69,4.15c-1.12,1.1-2.78,1.65-4.98,1.65-1.86,0-3.36-.37-4.48-1.11s-2.34-1.85-3.66-3.33l-20.07-22.45h-.16v19.25c0,2.41-.63,4.29-1.89,5.63-1.26,1.34-3.15,2.02-5.67,2.02h-.01Z"/>
      <path class="st2" d="M78.65,93.84c-2.58,0-4.56-.6-5.96-1.81s-2.1-2.96-2.1-5.26.7-3.97,2.1-5.18,3.38-1.81,5.96-1.81,4.72.6,6.09,1.81,2.06,2.93,2.06,5.18-.69,4.06-2.06,5.26c-1.37,1.21-3.4,1.81-6.09,1.81ZM78.65,141.62c-2.3,0-4.09-.69-5.35-2.06-1.26-1.37-1.89-3.34-1.89-5.92v-25.99c0-2.58.63-4.55,1.89-5.92,1.26-1.37,3.04-2.06,5.35-2.06s4.18.69,5.47,2.06c1.29,1.37,1.93,3.35,1.93,5.92v25.99c0,2.58-.63,4.55-1.89,5.92s-3.1,2.06-5.51,2.06Z"/>
      <path class="st2" d="M110.31,141.78c-3.45,0-6.51-.85-9.17-2.55-2.66-1.7-4.74-4.14-6.25-7.32-1.51-3.18-2.26-6.94-2.26-11.27s.75-8.22,2.26-11.35,3.59-5.54,6.25-7.24,5.72-2.55,9.17-2.55c3.01,0,5.73.71,8.14,2.14,2.41,1.43,4.03,3.26,4.85,5.51h-.9v-17.6c0-2.41.63-4.25,1.89-5.51s3.07-1.89,5.43-1.89,4.1.63,5.39,1.89,1.93,3.1,1.93,5.51v44.66c0,2.41-.62,4.25-1.85,5.51-1.23,1.26-3.03,1.89-5.39,1.89s-4.08-.63-5.35-1.89c-1.26-1.26-1.89-3.1-1.89-5.51v-4.69l.9,4.03c-.77,2.47-2.37,4.46-4.81,5.96-2.44,1.51-5.22,2.26-8.35,2.26h.01ZM115,131.01c1.48,0,2.8-.37,3.95-1.11,1.15-.74,2.04-1.86,2.67-3.37s.95-3.47.95-5.88c0-3.67-.71-6.32-2.14-7.94s-3.24-2.43-5.43-2.43c-1.48,0-2.8.36-3.95,1.07-1.15.71-2.06,1.82-2.71,3.33-.66,1.51-.99,3.5-.99,5.96,0,3.62.71,6.25,2.14,7.9,1.43,1.64,3.26,2.47,5.51,2.47Z"/>
      <path class="st2" d="M161.63,141.78c-2.41,0-4.87-.18-7.36-.53-2.5-.36-4.76-1-6.79-1.93-1.37-.55-2.34-1.29-2.92-2.22-.58-.93-.85-1.92-.82-2.96.03-1.04.33-1.99.9-2.84.58-.85,1.34-1.45,2.3-1.81s2.04-.31,3.25.12c2.3.82,4.37,1.41,6.21,1.77,1.84.36,3.6.53,5.3.53,2.03,0,3.48-.29,4.36-.86.88-.58,1.32-1.33,1.32-2.26,0-.82-.29-1.45-.86-1.89-.58-.44-1.39-.74-2.43-.9l-9.13-1.48c-3.4-.6-6.03-1.85-7.9-3.74-1.86-1.89-2.8-4.37-2.8-7.44,0-2.85.81-5.3,2.43-7.36s3.84-3.65,6.66-4.77c2.82-1.12,6.07-1.69,9.75-1.69,2.47,0,4.72.18,6.74.53,2.03.36,4,1,5.92,1.93,1.21.49,2.06,1.21,2.55,2.14s.68,1.91.58,2.92c-.11,1.02-.45,1.95-1.03,2.8-.58.85-1.36,1.43-2.34,1.73-.99.3-2.14.23-3.45-.21-1.81-.71-3.41-1.23-4.81-1.56-1.4-.33-2.7-.49-3.91-.49-2.25,0-3.84.3-4.77.9-.93.6-1.4,1.37-1.4,2.3,0,.71.25,1.3.74,1.77.49.47,1.26.78,2.3.95l9.13,1.56c3.51.55,6.21,1.74,8.1,3.58,1.89,1.84,2.84,4.32,2.84,7.44,0,4.44-1.7,7.88-5.1,10.32-3.4,2.44-7.92,3.66-13.57,3.66h0Z"/>
    </g>
    <g>
      <path class="st2" d="M194.67,120.01c-.96-3.83-1.14-7.75-.16-11.53,1.82-7.06,10.5-10.94,16.38-5.6,3.23,2.94,4.85,7.36,6.68,11.22,2.35,5,4.68,10.02,7.02,15.03,1.11,2.39,2.26,5.03,1.57,7.57-1.48,5.5-9.53,9.7-14.74,7.28-1.94-.9-3.54-2.39-5-3.94-4.95-5.25-9.85-12.48-11.73-20.04h-.02Z"/>
      <circle class="st7" cx="198.7" cy="88.02" r="8.25"/>
      <circle class="st11" cx="236.6" cy="88.02" r="8.25"/>
      <circle class="st9" cx="277.34" cy="88.02" r="8.25"/>
      <g class="st4">
        <path class="st3" d="M235.79,120.01c.96-3.83,1.14-7.75.16-11.53-1.82-7.06-10.5-10.94-16.38-5.6-3.23,2.94-4.85,7.36-6.68,11.22-2.35,5-4.68,10.02-7.02,15.03-1.11,2.39-2.26,5.03-1.57,7.57,1.48,5.5,9.53,9.7,14.74,7.28,1.94-.9,3.54-2.39,5-3.94,4.95-5.25,9.85-12.48,11.73-20.04h.02Z"/>
      </g>
      <path class="st1" d="M216.04,120.01c-.96-3.83-1.14-7.75-.16-11.53,1.82-7.06,10.5-10.94,16.38-5.6,3.23,2.94,4.85,7.36,6.68,11.22,2.35,5,4.68,10.02,7.02,15.03,1.11,2.39,2.26,5.03,1.57,7.57-1.48,5.5-9.53,9.7-14.74,7.28-1.94-.9-3.54-2.39-5-3.94-4.95-5.25-9.85-12.48-11.73-20.04h-.02Z"/>
      <g class="st4">
        <path class="st10" d="M257.16,120.01c.96-3.83,1.14-7.75.16-11.53-1.82-7.06-10.5-10.94-16.38-5.6-3.23,2.94-4.85,7.36-6.68,11.22-2.35,5-4.68,10.02-7.02,15.03-1.11,2.39-2.26,5.03-1.57,7.57,1.48,5.5,9.53,9.7,14.74,7.28,1.94-.9,3.54-2.39,5-3.94,4.95-5.25,9.85-12.48,11.73-20.04h.02Z"/>
      </g>
      <path class="st7" d="M237.41,120.01c-.96-3.83-1.14-7.75-.16-11.53,1.82-7.06,10.5-10.94,16.38-5.6,3.23,2.94,4.85,7.36,6.68,11.22,2.35,5,4.68,10.02,7.02,15.03,1.11,2.39,2.26,5.03,1.57,7.57-1.48,5.5-9.53,9.7-14.74,7.28-1.94-.9-3.54-2.39-5-3.94-4.95-5.25-9.85-12.48-11.73-20.04h-.02Z"/>
      <path class="st8" d="M278.53,120.01c.96-3.83,1.14-7.75.16-11.53-1.82-7.06-10.5-10.94-16.38-5.6-3.23,2.94-4.85,7.36-6.68,11.22-2.35,5-4.68,10.02-7.02,15.03-1.11,2.39-2.26,5.03-1.57,7.57,1.48,5.5,9.53,9.7,14.74,7.28,1.94-.9,3.54-2.39,5-3.94,4.95-5.25,9.85-12.48,11.73-20.04h.02Z"/>
    </g>
  </g>
  <g class="st5">
    <text class="st6" transform="translate(10.47 175.34)"><tspan x="0" y="0">Terapia Conductual</tspan></text>
  </g>
</svg>